<svg width="159" height="158" fill="none" xmlns="http://www.w3.org/2000/svg"><g filter="url(#filter0_dii_39_533)"><path d="M76.855 16.504c1.097-2.241 4.292-2.241 5.389 0l4.506 9.205a3 3 0 002.257 1.649l10.122 1.491c2.452.362 3.433 3.372 1.665 5.109l-7.351 7.22a3 3 0 00-.856 2.643l1.73 10.17c.418 2.454-2.163 4.32-4.363 3.154l-9-4.773a3 3 0 00-2.81 0l-9 4.773c-2.199 1.166-4.78-.7-4.362-3.154l1.73-10.17a3 3 0 00-.856-2.644l-7.351-7.22c-1.768-1.736-.787-4.746 1.665-5.108l10.122-1.491a3 3 0 002.257-1.65l4.506-9.204z" fill="url(#paint0_linear_39_533)"/></g><defs><linearGradient id="paint0_linear_39_533" x1="69.366" y1="16.458" x2="80.658" y2="56.675" gradientUnits="userSpaceOnUse"><stop offset="0" stop-color="#FFED8C"/><stop offset="1" stop-color="#F4B335"/></linearGradient><filter id="filter0_dii_39_533" x=".201" y=".523" width="158.697" height="157.084" filterUnits="userSpaceOnUse" color-interpolation-filters="sRGB"><feFlood flood-opacity="0" result="BackgroundImageFix"/><feColorMatrix in="SourceAlpha" values="0 0 0 0 0 0 0 0 0 0 0 0 0 0 0 0 0 0 127 0" result="hardAlpha"/><feOffset dy="42.902"/><feGaussianBlur stdDeviation="28.602"/><feComposite in2="hardAlpha" operator="out"/><feColorMatrix values="0 0 0 0 0.441638 0 0 0 0 0.245593 0 0 0 0 0.0646293 0 0 0 0.25 0"/><feBlend in2="BackgroundImageFix" result="effect1_dropShadow_39_533"/><feBlend in="SourceGraphic" in2="effect1_dropShadow_39_533" result="shape"/><feColorMatrix in="SourceAlpha" values="0 0 0 0 0 0 0 0 0 0 0 0 0 0 0 0 0 0 127 0" result="hardAlpha"/><feOffset dy="-14.301"/><feGaussianBlur stdDeviation="14.301"/><feComposite in2="hardAlpha" operator="arithmetic" k2="-1" k3="1"/><feColorMatrix values="0 0 0 0 0.549971 0 0 0 0 0.304646 0 0 0 0 0.0781912 0 0 0 0.57 0"/><feBlend in2="shape" result="effect2_innerShadow_39_533"/><feColorMatrix in="SourceAlpha" values="0 0 0 0 0 0 0 0 0 0 0 0 0 0 0 0 0 0 127 0" result="hardAlpha"/><feOffset dy="-14.301"/><feGaussianBlur stdDeviation="7.15"/><feComposite in2="hardAlpha" operator="arithmetic" k2="-1" k3="1"/><feColorMatrix values="0 0 0 0 1 0 0 0 0 0.981301 0 0 0 0 0.813007 0 0 0 0.72 0"/><feBlend in2="effect2_innerShadow_39_533" result="effect3_innerShadow_39_533"/></filter></defs></svg>