<svg width="50" height="50" fill="none" xmlns="http://www.w3.org/2000/svg"><rect width="50" height="50" rx="25" fill="#E11D2E"/><path d="M35.334 13.334h-6.667c-.736 0-1.333.596-1.333 1.333v6.667c0 .736.597 1.333 1.333 1.333h6.667c.736 0 1.333-.597 1.333-1.334v-6.666c0-.737-.597-1.333-1.333-1.333zM21 27.667h-6.667c-.736 0-1.333.597-1.333 1.333v6.667c0 .736.597 1.333 1.333 1.333H21c.736 0 1.333-.597 1.333-1.333V29c0-.736-.597-1.333-1.333-1.333zm-3.333-5a4.667 4.667 0 100-9.334 4.667 4.667 0 000 9.334zm19 13l-4.666-8-4.667 8c0 .736.597 1.333 1.333 1.333h6.667c.736 0 1.333-.597 1.333-1.333z" opacity=".7" fill="#fff"/></svg>