<svg width="108" height="108" fill="none" xmlns="http://www.w3.org/2000/svg"><rect width="108" height="108" rx="15" fill="#E11D2E"/><path d="M53.994 45.997c-4.407 0-8.003 3.596-8.003 8.003s3.596 8.003 8.003 8.003 8.003-3.596 8.003-8.003-3.596-8.003-8.003-8.003zM77.998 54c0-3.314.03-6.599-.156-9.907-.186-3.842-1.063-7.253-3.873-10.063-2.815-2.815-6.22-3.686-10.062-3.872-3.314-.186-6.599-.156-9.907-.156-3.314 0-6.599-.03-9.907.156-3.842.186-7.253 1.063-10.063 3.873-2.815 2.815-3.686 6.22-3.872 10.062-.186 3.314-.156 6.599-.156 9.907s-.03 6.599.156 9.907c.186 3.842 1.063 7.253 3.873 10.063 2.815 2.815 6.22 3.686 10.062 3.872 3.314.186 6.599.156 9.907.156 3.314 0 6.599.03 9.907-.156 3.842-.186 7.253-1.063 10.063-3.873 2.815-2.815 3.686-6.22 3.872-10.062.192-3.308.156-6.593.156-9.907zM53.994 66.314c-6.815 0-12.314-5.5-12.314-12.314 0-6.815 5.5-12.314 12.314-12.314 6.815 0 12.314 5.5 12.314 12.314 0 6.815-5.5 12.314-12.314 12.314zm12.819-22.257a2.873 2.873 0 01-2.876-2.876 2.872 2.872 0 012.876-2.876 2.872 2.872 0 012.876 2.876 2.872 2.872 0 01-2.876 2.876z" fill="#fff"/></svg>