<svg width="108" height="108" fill="none" xmlns="http://www.w3.org/2000/svg"><rect width="108" height="108" rx="15" fill="#E11D2E"/><path d="M54 30c-13.254 0-24 10.746-24 24s10.746 24 24 24 24-10.746 24-24-10.746-24-24-24zm13.714 13.591l-2.185 2.095a.634.634 0 00-.247.61V61.71a.626.626 0 00.247.61l2.142 2.095v.466H56.914v-.444l2.213-2.149c.22-.22.22-.283.22-.61V49.205l-6.161 15.622h-.83l-7.169-15.622V59.68a1.43 1.43 0 00.402 1.2l2.882 3.487v.466h-8.185v-.466l2.882-3.487a1.399 1.399 0 00.375-1.2V47.57a1.039 1.039 0 00-.348-.894l-2.561-3.086v-.466h7.955l6.14 13.473 5.405-13.462h7.58v.455z" fill="#fff"/></svg>