<svg width="50" height="50" fill="none" xmlns="http://www.w3.org/2000/svg"><rect width="50" height="50" rx="25" fill="#0096F2"/><path opacity=".7" d="M25 13c-6.617 0-12 5.384-12 12 0 6.627 5.373 12 12 12 6.617 0 12-5.383 12-12 0-6.627-5.373-12-12-12zm0 18.058a5.423 5.423 0 010-10.846h.243l-.814-.814a.808.808 0 011.142-1.142l2.308 2.308a.806.806 0 010 1.142l-2.308 2.308a.808.808 0 01-1.142-1.143l1.038-1.038c-.137-.006-.294-.006-.467-.006a3.807 3.807 0 103.808 3.808.808.808 0 011.615 0A5.43 5.43 0 0125 31.058z" fill="#fff"/></svg>