<svg width="108" height="108" fill="none" xmlns="http://www.w3.org/2000/svg"><path d="M0 15C0 6.716 6.716 0 15 0h78c8.284 0 15 6.716 15 15v78c0 8.284-6.716 15-15 15H15c-8.284 0-15-6.716-15-15V15z" fill="#E11D2E"/><path d="M83 35.694c-2.17.962-4.5 1.612-6.95 1.906a12.142 12.142 0 005.32-6.704 24.155 24.155 0 01-7.685 2.938 12.106 12.106 0 00-14.554-2.4 12.127 12.127 0 00-6.073 13.451 34.354 34.354 0 01-24.95-12.658 12.115 12.115 0 00-1.637 6.09 12.125 12.125 0 005.384 10.085 12.068 12.068 0 01-5.483-1.516v.156c0 2.797.967 5.509 2.737 7.674a12.107 12.107 0 006.974 4.205 12.184 12.184 0 01-5.467.208 12.12 12.12 0 004.306 6.02 12.105 12.105 0 007.002 2.39 24.278 24.278 0 01-15.034 5.187c-.966 0-1.931-.056-2.89-.169A34.216 34.216 0 0042.553 78c22.268 0 34.442-18.458 34.442-34.466 0-.52-.013-1.045-.036-1.566a24.615 24.615 0 006.036-6.267l.005-.007z" fill="#fff"/></svg>