<svg width="107" height="89" fill="none" xmlns="http://www.w3.org/2000/svg"><g filter="url(#filter0_di_39_534)"><path fill-rule="evenodd" clip-rule="evenodd" d="M61.78 6a3.975 3.975 0 00-3.967 3.983c0 2.2 1.776 3.982 3.968 3.982h7.704L54.828 29.233l-7.32-7.348a3.96 3.96 0 00-5.655.043L25.12 39.244a3.993 3.993 0 00.086 5.632 3.957 3.957 0 005.61-.086l13.93-14.413 7.33 7.357a3.96 3.96 0 005.662-.053l17.327-18.048v7.32a3.975 3.975 0 003.968 3.982A3.975 3.975 0 0083 26.952V9.982A3.975 3.975 0 0079.032 6H61.781z" fill="url(#paint0_linear_39_534)"/></g><defs><linearGradient id="paint0_linear_39_534" x1="53.5" y1="6" x2="53.5" y2="46" gradientUnits="userSpaceOnUse"><stop stop-color="#E75C5C"/><stop offset="1" stop-color="#E13600"/></linearGradient><filter id="filter0_di_39_534" x=".162" y="-6.836" width="106.676" height="95.01" filterUnits="userSpaceOnUse" color-interpolation-filters="sRGB"><feFlood flood-opacity="0" result="BackgroundImageFix"/><feColorMatrix in="SourceAlpha" values="0 0 0 0 0 0 0 0 0 0 0 0 0 0 0 0 0 0 127 0" result="hardAlpha"/><feOffset dy="18.337"/><feGaussianBlur stdDeviation="11.919"/><feColorMatrix values="0 0 0 0 0.679167 0 0 0 0 0.104705 0 0 0 0 0.104705 0 0 0 0.37 0"/><feBlend in2="BackgroundImageFix" result="effect1_dropShadow_39_534"/><feBlend in="SourceGraphic" in2="effect1_dropShadow_39_534" result="shape"/><feColorMatrix in="SourceAlpha" values="0 0 0 0 0 0 0 0 0 0 0 0 0 0 0 0 0 0 127 0" result="hardAlpha"/><feOffset dy="-18.337"/><feGaussianBlur stdDeviation="6.418"/><feComposite in2="hardAlpha" operator="arithmetic" k2="-1" k3="1"/><feColorMatrix values="0 0 0 0 0 0 0 0 0 0 0 0 0 0 0 0 0 0 0.2 0"/><feBlend in2="shape" result="effect2_innerShadow_39_534"/></filter></defs></svg>